<svg width="17" height="18" viewBox="0 0 17 18" fill="none" xmlns="http://www.w3.org/2000/svg">
<path d="M15.1075 6.77545L15.0973 6.76522C15.0965 6.76465 15.0958 6.76388 15.0954 6.763L8.69595 0.363392L2.29657 6.76283C2.29583 6.76357 2.29468 6.76505 2.29468 6.76505L2.28412 6.77528C1.30556 7.75933 0.684012 9.04224 0.518272 10.4201C0.352533 11.798 0.652116 13.1917 1.3694 14.3798C2.08668 15.5678 3.18049 16.482 4.47696 16.977C5.77343 17.472 7.19815 17.5194 8.52464 17.1116C8.63626 17.0775 8.75557 17.0775 8.8672 17.1116C10.1936 17.5192 11.6182 17.4718 12.9146 16.9768C14.211 16.4817 15.3047 15.5676 16.0219 14.3796C16.7392 13.1916 17.0388 11.798 16.8731 10.4202C16.7074 9.04241 16.086 7.7595 15.1075 6.77545ZM4.57211 10.9955C4.54095 11.0266 4.51625 11.0636 4.4994 11.1043C4.48254 11.1449 4.47387 11.1886 4.47388 11.2326C4.48526 12.3621 4.80446 13.467 5.39712 14.4286C5.41058 14.4504 5.4168 14.4759 5.4149 14.5015C5.41299 14.527 5.40305 14.5513 5.38649 14.5709C5.36994 14.5905 5.34762 14.6043 5.32273 14.6104C5.29784 14.6165 5.27166 14.6146 5.24792 14.6049C4.80238 14.4175 4.39762 14.1451 4.05629 13.8029C3.35679 13.1033 2.96355 12.1546 2.96291 11.1653C2.96227 10.1759 3.35431 9.22676 4.05291 8.52627L8.69595 3.88367L13.3388 8.52627C14.0375 9.22668 14.4296 10.1759 14.429 11.1653C14.4284 12.1546 14.0351 13.1033 13.3355 13.8029C12.9942 14.1451 12.5895 14.4175 12.144 14.6049C12.1202 14.6146 12.094 14.6165 12.0691 14.6104C12.0443 14.6043 12.022 14.5904 12.0053 14.5709C11.9888 14.5513 11.9788 14.527 11.9769 14.5014C11.975 14.4759 11.9812 14.4503 11.9947 14.4285C12.5875 13.467 12.9068 12.3621 12.9184 11.2326C12.9184 11.1886 12.9097 11.1449 12.8927 11.1042C12.8758 11.0635 12.851 11.0265 12.8197 10.9954L10.6237 8.66603C10.6018 8.64777 10.5743 8.63777 10.5458 8.63777C10.5173 8.63777 10.4897 8.64777 10.4679 8.66603C10.446 8.68421 10.4313 8.70957 10.4262 8.73759C10.4211 8.7656 10.4259 8.79443 10.44 8.81922C11.2929 10.3627 10.5595 12.5797 9.33638 13.8029L9.32993 13.8094C9.16112 13.9764 8.93322 14.07 8.69578 14.0699C8.45831 14.0698 8.23047 13.976 8.06178 13.809L8.05584 13.8029C6.8323 12.5797 6.09925 10.3629 6.9523 8.81955C6.96633 8.79477 6.97122 8.76593 6.96611 8.73792C6.96101 8.7099 6.94625 8.68454 6.92439 8.66636C6.90253 8.6481 6.87498 8.6381 6.84651 8.6381C6.81805 8.6381 6.79048 8.6481 6.76862 8.66636L4.57211 10.9955Z" fill="#F53838"/>
</svg>
